<svg width="100" height="45" viewBox="0 0 100 45" fill="none" xmlns="http://www.w3.org/2000/svg">
  <defs>
    <linearGradient id="iconTextGrad" x1="0%" y1="0%" x2="100%" y2="0%">
      <stop offset="0%" style="stop-color:#2563EB;stop-opacity:1" />
      <stop offset="100%" style="stop-color:#3B82F6;stop-opacity:1" />
    </linearGradient>
    <linearGradient id="iconCloudGrad" x1="0%" y1="0%" x2="100%" y2="100%">
      <stop offset="0%" style="stop-color:#DBEAFE;stop-opacity:1" />
      <stop offset="50%" style="stop-color:#93C5FD;stop-opacity:1" />
      <stop offset="100%" style="stop-color:#60A5FA;stop-opacity:1" />
    </linearGradient>
  </defs>
  
  <!-- Text -->
  <text 
    x="50" 
    y="20" 
    font-family="system-ui, -apple-system, sans-serif" 
    font-size="18" 
    font-weight="800" 
    fill="url(#iconTextGrad)" 
    letter-spacing="-0.3px"
    text-anchor="middle">
    S3ntraCS
  </text>
  
  <!-- Cloud below -->
  <g transform="translate(50, 25)">
    <path d="M-15 3 Q-16 1 -15 0 Q-14 -1 -12 0 Q-10 -1 -8 0 Q-6 -1 -4 0 Q-2 -1 0 0 Q2 -1 4 0 Q6 -1 8 0 Q10 -1 12 0 Q14 -1 15 0 Q16 1 15 3 Q15 5 14 5 Q13 6 11 6 Q9 7 7 7 Q5 7 0 7 Q-5 7 -7 7 Q-9 7 -11 6 Q-13 6 -14 5 Q-15 5 -15 3 Z" 
          fill="url(#iconCloudGrad)" 
          stroke="#2563EB" 
          stroke-width="1.2"
          stroke-opacity="0.3"/>
    <ellipse cx="-5" cy="4" rx="4" ry="3" fill="#FFFFFF" opacity="0.4"/>
    <ellipse cx="0" cy="4.5" rx="5" ry="3.5" fill="#FFFFFF" opacity="0.3"/>
    <ellipse cx="5" cy="4" rx="4" ry="3" fill="#FFFFFF" opacity="0.4"/>
  </g>
</svg>
